# Created by FreeCAD <http://www.freecadweb.org>
v -1.011858 -3.820000 2.540000
v 1.011858 -3.820000 2.540000
v 1.016000 -3.810000 2.530000
v -1.016000 -3.810000 2.530000
v 1.270000 -4.064000 2.530000
v 1.260000 -4.068142 2.540000
v -1.011858 -3.800000 2.540000
v 1.011858 -3.800000 2.540000
v -1.270000 -4.064000 2.530000
v -1.260000 -4.068142 2.540000
v 0.335000 -5.415000 2.540000
v 1.011858 -6.340000 2.540000
v 1.260000 -6.091858 2.540000
v 0.335000 -4.745000 2.540000
v -0.335000 -5.415000 2.540000
v -1.011858 -6.340000 2.540000
v -1.260000 -6.091858 2.540000
v -0.335000 -4.745000 2.540000
v 1.270000 -6.096000 2.530000
v 1.270000 -4.064000 0.010000
v 1.016000 -3.810000 0.254000
v 1.016000 -3.810000 0.010000
v -1.270000 -3.556000 2.530000
v -1.260000 -3.551858 2.540000
v 0.335000 -2.875000 2.540000
v 1.260000 -3.551858 2.540000
v 1.260000 -1.528142 2.540000
v 0.335000 -2.205000 2.540000
v -0.335000 -2.875000 2.540000
v 1.011858 -1.280000 2.540000
v -1.260000 -1.528142 2.540000
v -0.335000 -2.205000 2.540000
v -1.011858 -1.280000 2.540000
v 1.270000 -3.556000 2.530000
v -1.270000 -6.096000 2.530000
v -1.016000 -3.810000 0.254000
v -1.270000 -4.064000 0.010000
v -1.016000 -3.810000 0.010000
v -1.016000 -6.350000 2.530000
v 1.016000 -6.350000 2.530000
v -0.335000 -5.415000 2.040000
v -0.335000 -4.745000 2.040000
v 0.335000 -4.745000 2.040000
v 0.335000 -5.415000 2.040000
v 1.270000 -6.096000 0.010000
v 1.026000 -3.834142 0.000000
v 1.260000 -4.068142 0.000000
v 1.270000 -3.556000 0.010000
v -1.270000 -1.524000 2.530000
v -1.270000 -3.556000 0.010000
v 1.270000 -1.524000 2.530000
v 1.016000 -1.270000 2.530000
v -1.016000 -1.270000 2.530000
v -0.335000 -2.875000 2.040000
v -0.335000 -2.205000 2.040000
v 0.335000 -2.205000 2.040000
v 0.335000 -2.875000 2.040000
v -1.270000 -6.096000 0.010000
v -1.026000 -3.834142 0.000000
v -1.260000 -4.068142 0.000000
v -1.016000 -6.350000 0.254000
v -1.016000 -6.350000 0.010000
v 1.016000 -6.350000 0.254000
v 1.016000 -6.350000 0.010000
v 0.325000 -5.405000 2.040000
v 0.325000 -4.755000 2.040000
v -0.325000 -4.755000 2.040000
v -0.325000 -5.405000 2.040000
v 1.260000 -6.091858 0.000000
v 1.016000 -3.834142 0.010000
v 1.026000 -6.325858 0.000000
v 1.270000 -1.524000 0.010000
v 1.026000 -3.785858 0.000000
v 1.260000 -3.551858 0.000000
v -1.270000 -1.524000 0.010000
v -1.260000 -3.551858 0.000000
v -1.026000 -3.785858 0.000000
v 1.016000 -1.270000 0.254000
v 1.016000 -1.270000 0.010000
v -1.016000 -1.270000 0.254000
v -1.016000 -1.270000 0.010000
v 0.325000 -2.865000 2.040000
v 0.325000 -2.215000 2.040000
v -0.325000 -2.215000 2.040000
v -0.325000 -2.865000 2.040000
v -1.260000 -6.091858 0.000000
v -1.016000 -3.834142 0.010000
v -1.026000 -6.325858 0.000000
v -0.325000 -5.405000 8.490000
v -0.325000 -4.755000 8.490000
v 0.325000 -5.405000 8.490000
v 0.325000 -4.755000 8.490000
v 1.260000 -1.528142 0.000000
v 1.016000 -1.294142 0.010000
v 1.026000 -1.294142 0.000000
v -1.260000 -1.528142 0.000000
v -1.016000 -1.294142 0.010000
v -1.026000 -1.294142 0.000000
v -0.325000 -2.865000 8.490000
v -0.325000 -2.215000 8.490000
v 0.325000 -2.865000 8.490000
v 0.325000 -2.215000 8.490000
v -0.125000 -5.205000 8.890000
v -0.125000 -4.955000 8.890000
v 0.125000 -5.205000 8.890000
v 0.125000 -4.955000 8.890000
v -0.125000 -2.665000 8.890000
v -0.125000 -2.415000 8.890000
v 0.125000 -2.665000 8.890000
v 0.125000 -2.415000 8.890000
v -0.325000 -2.215000 0.254000
v 0.325000 -2.215000 0.254000
v 0.325000 -2.865000 0.254000
v 0.325000 -4.755000 0.254000
v -0.325000 -2.865000 0.254000
v -0.325000 -4.755000 0.254000
v 0.325000 -5.405000 0.254000
v -0.325000 -5.405000 0.254000
v -0.325000 -5.405000 -2.648000
v -0.325000 -4.755000 -2.648000
v 0.325000 -5.405000 -2.648000
v 0.325000 -4.755000 -2.648000
v -0.125000 -4.955000 -3.048000
v -0.125000 -5.205000 -3.048000
v 0.125000 -5.205000 -3.048000
v 0.125000 -4.955000 -3.048000
v -0.325000 -2.865000 -2.648000
v -0.325000 -2.215000 -2.648000
v 0.325000 -2.865000 -2.648000
v 0.325000 -2.215000 -2.648000
v -0.125000 -2.415000 -3.048000
v -0.125000 -2.665000 -3.048000
v 0.125000 -2.665000 -3.048000
v 0.125000 -2.415000 -3.048000
vn -0.000000 0.707107 0.707107
vn 0.000000 0.707107 0.707107
vn 0.500006 0.500006 0.707099
vn 0.500000 0.499999 0.707107
vn 0.000000 -0.707107 0.707107
vn 0.000000 -0.707107 0.707107
vn -0.500005 0.500006 0.707099
vn -0.500000 0.499999 0.707108
vn 0.000000 0.000000 1.000000
vn 0.000000 0.000000 1.000000
vn -0.000000 0.000000 1.000000
vn 0.000000 0.000000 1.000000
vn -0.000000 0.000000 1.000000
vn -0.000000 0.000000 1.000000
vn 0.000000 0.000000 1.000000
vn 0.000000 0.000000 1.000000
vn 0.000000 0.000000 1.000000
vn 0.000000 0.000000 1.000000
vn 0.000000 0.000000 1.000000
vn -0.000000 0.000000 1.000000
vn 0.707107 -0.000000 0.707107
vn 0.707107 -0.000000 0.707107
vn 0.707107 0.707106 -0.000000
vn 0.707107 0.707106 0.000000
vn 0.707107 0.707106 0.000000
vn -0.500001 -0.500001 0.707105
vn -0.499999 -0.499999 0.707108
vn 0.000000 0.000000 1.000000
vn 0.000000 0.000000 1.000000
vn -0.000000 0.000000 1.000000
vn 0.000000 0.000000 1.000000
vn -0.000000 0.000000 1.000000
vn -0.000000 0.000000 1.000000
vn 0.000000 0.000000 1.000000
vn 0.000000 0.000000 1.000000
vn 0.000000 0.000000 1.000000
vn 0.000000 0.000000 1.000000
vn 0.000000 0.000000 1.000000
vn -0.000000 0.000000 1.000000
vn 0.499999 -0.499999 0.707108
vn 0.500002 -0.500002 0.707104
vn -0.707107 0.000000 0.707107
vn -0.707107 0.000000 0.707107
vn -0.707107 0.707106 0.000000
vn -0.707107 0.707106 0.000000
vn -0.707107 0.707106 0.000000
vn -0.499997 -0.499998 0.707111
vn -0.500004 -0.500003 0.707102
vn 0.000000 -0.707115 0.707098
vn 0.000000 -0.707115 0.707098
vn 0.500004 -0.500003 0.707102
vn 0.499997 -0.499998 0.707110
vn 1.000000 0.000000 0.000000
vn 1.000000 0.000000 0.000000
vn -0.000000 -1.000000 0.000000
vn 0.000000 -1.000000 -0.000000
vn -1.000000 0.000000 0.000000
vn -1.000000 0.000000 0.000000
vn -0.000000 1.000000 0.000000
vn 0.000000 1.000000 0.000000
vn 1.000000 0.000000 0.000000
vn 1.000000 0.000000 -0.000000
vn 0.500006 0.500006 -0.707098
vn 0.499998 0.499998 -0.707110
vn 0.707107 -0.707107 0.000000
vn 0.707107 -0.707107 0.000000
vn 0.707107 -0.707107 0.000000
vn -0.707107 0.000000 0.707107
vn -0.707107 0.000000 0.707107
vn -0.707107 -0.707107 -0.000000
vn -0.707107 -0.707107 -0.000000
vn -0.707107 -0.707107 -0.000000
vn 0.500001 0.500001 0.707105
vn 0.500000 0.500000 0.707107
vn -0.000000 0.707107 0.707107
vn 0.000000 0.707107 0.707107
vn -0.500001 0.500001 0.707105
vn -0.500000 0.499999 0.707108
vn 0.707107 -0.000000 0.707107
vn 0.707107 -0.000000 0.707107
vn 1.000000 0.000000 0.000000
vn 1.000000 0.000000 0.000000
vn -0.000000 -1.000000 0.000000
vn 0.000000 -1.000000 -0.000000
vn -1.000000 0.000000 0.000000
vn -1.000000 0.000000 0.000000
vn -0.000000 1.000000 0.000000
vn 0.000000 1.000000 0.000000
vn -1.000000 0.000000 -0.000000
vn -1.000000 0.000000 0.000000
vn -0.499998 0.499998 -0.707110
vn -0.500006 0.500006 -0.707098
vn -0.707106 -0.707107 -0.000000
vn -0.707106 -0.707107 -0.000000
vn -0.707106 -0.707107 -0.000000
vn -0.000000 -1.000000 0.000000
vn 0.000000 -1.000000 -0.000000
vn 0.707106 -0.707107 0.000000
vn 0.707106 -0.707107 0.000000
vn 0.707106 -0.707107 0.000000
vn -0.000000 0.000000 1.000000
vn -0.000000 0.000000 1.000000
vn 0.000000 0.000000 1.000000
vn 0.000000 0.000000 1.000000
vn -0.000000 0.000000 1.000000
vn 0.000000 0.000000 1.000000
vn 0.000000 0.000000 1.000000
vn 0.000000 0.000000 1.000000
vn 0.707107 0.000000 -0.707106
vn 0.707107 0.000000 -0.707106
vn -0.707107 -0.000000 -0.707106
vn 0.000000 0.000000 -1.000000
vn -0.000000 0.000000 -1.000000
vn 1.000000 0.000000 0.000000
vn 1.000000 0.000000 -0.000000
vn 0.500002 -0.500002 -0.707104
vn 0.500002 -0.500002 -0.707104
vn -1.000000 0.000000 -0.000000
vn -1.000000 0.000000 0.000000
vn -0.500002 -0.500002 -0.707104
vn -0.500002 -0.500002 -0.707104
vn 0.707107 0.707107 -0.000000
vn 0.707107 0.707107 0.000000
vn 0.707107 0.707107 0.000000
vn 0.000000 1.000000 0.000000
vn 0.000000 1.000000 0.000000
vn -0.707107 0.707107 0.000000
vn -0.707107 0.707107 0.000000
vn -0.707107 0.707107 0.000000
vn -0.000000 0.000000 1.000000
vn -0.000000 0.000000 1.000000
vn 0.000000 0.000000 1.000000
vn 0.000000 0.000000 1.000000
vn -0.000000 0.000000 1.000000
vn 0.000000 0.000000 1.000000
vn 0.000000 0.000000 1.000000
vn 0.000000 0.000000 1.000000
vn -0.707107 -0.000000 -0.707106
vn -0.707107 -0.000000 -0.707106
vn 0.707107 0.000000 -0.707106
vn 0.000000 0.000000 -1.000000
vn 0.000000 0.000000 -1.000000
vn -0.499997 -0.499998 -0.707110
vn -0.499997 -0.499997 -0.707111
vn 0.499997 -0.499998 -0.707110
vn 0.499997 -0.499997 -0.707111
vn -1.000000 0.000000 0.000000
vn -1.000000 0.000000 0.000000
vn 0.000000 -1.000000 0.000000
vn 0.000000 -1.000000 0.000000
vn 1.000000 0.000000 0.000000
vn 1.000000 -0.000000 0.000000
vn 0.000000 1.000000 0.000000
vn 0.000000 1.000000 0.000000
vn -0.707107 -0.000000 -0.707106
vn -0.707107 0.000000 -0.707106
vn 0.707107 0.000000 -0.707106
vn 0.707107 0.000000 -0.707106
vn -0.707107 -0.000000 -0.707106
vn -0.707107 0.000000 -0.707106
vn 0.000000 0.000000 -1.000000
vn -0.000000 0.000000 -1.000000
vn -0.707107 -0.000000 -0.707106
vn -0.707107 -0.000000 -0.707106
vn 0.707107 0.000000 -0.707106
vn 0.707107 0.000000 -0.707106
vn 0.000000 0.000000 -1.000000
vn 0.000000 0.000000 -1.000000
vn 0.500002 0.500002 -0.707104
vn 0.500000 0.500000 -0.707107
vn -0.500000 0.500000 -0.707107
vn -0.500002 0.500002 -0.707104
vn -1.000000 0.000000 0.000000
vn -1.000000 0.000000 0.000000
vn 0.000000 -1.000000 0.000000
vn 0.000000 -1.000000 0.000000
vn 1.000000 0.000000 0.000000
vn 1.000000 -0.000000 0.000000
vn 0.000000 1.000000 0.000000
vn 0.000000 1.000000 0.000000
vn 0.707107 0.000000 -0.707106
vn 0.707107 0.000000 -0.707106
vn -0.894427 0.000000 0.447213
vn -0.894427 0.000000 0.447213
vn 0.000000 -0.894427 0.447214
vn 0.000000 -0.894427 0.447214
vn 0.894427 0.000000 0.447213
vn 0.894427 0.000000 0.447213
vn 0.000000 0.894428 0.447213
vn -0.000000 0.894428 0.447213
vn -0.707107 -0.000000 -0.707106
vn 0.707107 0.000000 -0.707106
vn -0.894427 0.000000 0.447213
vn -0.894427 0.000000 0.447213
vn 0.000000 -0.894427 0.447213
vn 0.000000 -0.894427 0.447213
vn 0.894427 0.000000 0.447213
vn 0.894427 0.000000 0.447213
vn 0.000000 0.894427 0.447213
vn -0.000000 0.894427 0.447213
vn 0.000000 -0.000000 1.000000
vn 0.000000 0.000000 1.000000
vn 0.000000 -0.000000 1.000000
vn 0.000000 0.000000 1.000000
vn 1.000000 0.000000 0.000000
vn 1.000000 0.000000 0.000000
vn 1.000000 0.000000 0.000000
vn 1.000000 -0.000000 0.000000
vn 1.000000 0.000000 0.000000
vn 1.000000 -0.000000 0.000000
vn 0.000000 0.000000 -1.000000
vn 0.000000 0.000000 -1.000000
vn 0.000000 0.000000 -1.000000
vn 0.000000 0.000000 -1.000000
vn 0.000000 0.000000 -1.000000
vn 0.000000 0.000000 -1.000000
vn 0.000000 0.000000 -1.000000
vn 0.000000 0.000000 -1.000000
vn 0.000000 0.000000 -1.000000
vn 0.000000 0.000000 -1.000000
vn 0.000000 0.000000 -1.000000
vn 0.000000 0.000000 -1.000000
vn 0.000000 0.000000 -1.000000
vn 0.000000 0.000000 -1.000000
vn 0.000000 0.000000 -1.000000
vn 0.000000 0.000000 -1.000000
vn -1.000000 0.000000 0.000000
vn -1.000000 0.000000 0.000000
vn 0.000000 -1.000000 0.000000
vn 0.000000 -1.000000 0.000000
vn 1.000000 0.000000 0.000000
vn 1.000000 0.000000 0.000000
vn 0.000000 1.000000 0.000000
vn 0.000000 1.000000 0.000000
vn -0.894427 0.000000 -0.447213
vn -0.894427 -0.000000 -0.447213
vn 0.000000 -0.894427 -0.447214
vn 0.000000 -0.894427 -0.447214
vn 0.894427 0.000000 -0.447213
vn 0.894427 0.000000 -0.447213
vn 0.000000 0.894427 -0.447213
vn 0.000000 0.894427 -0.447213
vn -0.000000 0.000000 -1.000000
vn 0.000000 -0.000000 -1.000000
vn -1.000000 0.000000 0.000000
vn -1.000000 0.000000 0.000000
vn 0.000000 -1.000000 0.000000
vn 0.000000 -1.000000 0.000000
vn 1.000000 0.000000 0.000000
vn 1.000000 0.000000 0.000000
vn 0.000000 1.000000 0.000000
vn 0.000000 1.000000 0.000000
vn -0.894427 0.000000 -0.447213
vn -0.894427 -0.000000 -0.447213
vn 0.000000 -0.894427 -0.447214
vn 0.000000 -0.894427 -0.447214
vn 0.894427 0.000000 -0.447213
vn 0.894427 0.000000 -0.447213
vn 0.000000 0.894427 -0.447214
vn 0.000000 0.894427 -0.447214
vn -0.000000 0.000000 -1.000000
vn 0.000000 -0.000000 -1.000000
vn -1.000000 0.000000 0.000000
vn -1.000000 0.000000 0.000000
vn -1.000000 0.000000 0.000000
vn -1.000000 0.000000 0.000000
vn -1.000000 0.000000 0.000000
vn -1.000000 0.000000 0.000000
f 1//1 2//1 3//1
f 1//2 3//2 4//2
f 5//3 2//3 6//3
f 5//4 3//4 2//4
f 4//5 3//5 7//5
f 7//6 3//6 8//6
f 1//7 9//7 10//7
f 4//8 9//8 1//8
f 11//9 12//9 13//9
f 6//10 11//10 13//10
f 14//11 11//11 6//11
f 15//12 16//12 12//12
f 15//13 12//13 11//13
f 17//14 16//14 15//14
f 2//15 14//15 6//15
f 10//16 15//16 18//16
f 10//17 17//17 15//17
f 1//18 18//18 14//18
f 1//19 10//19 18//19
f 1//20 14//20 2//20
f 19//21 5//21 13//21
f 13//22 5//22 6//22
f 20//23 21//23 5//23
f 5//24 21//24 3//24
f 20//25 22//25 21//25
f 23//26 4//26 24//26
f 24//27 4//27 7//27
f 25//28 8//28 26//28
f 27//29 25//29 26//29
f 28//30 25//30 27//30
f 29//31 7//31 8//31
f 29//32 8//32 25//32
f 24//33 7//33 29//33
f 30//34 28//34 27//34
f 31//35 29//35 32//35
f 31//36 24//36 29//36
f 33//37 32//37 28//37
f 33//38 31//38 32//38
f 33//39 28//39 30//39
f 3//40 26//40 8//40
f 3//41 34//41 26//41
f 9//42 17//42 10//42
f 9//43 35//43 17//43
f 36//44 37//44 9//44
f 36//45 9//45 4//45
f 38//46 37//46 36//46
f 35//47 39//47 17//47
f 17//48 39//48 16//48
f 39//49 40//49 16//49
f 16//50 40//50 12//50
f 40//51 13//51 12//51
f 40//52 19//52 13//52
f 18//53 15//53 41//53
f 18//54 41//54 42//54
f 14//55 18//55 42//55
f 14//56 42//56 43//56
f 11//57 14//57 43//57
f 11//58 43//58 44//58
f 15//59 11//59 44//59
f 15//60 44//60 41//60
f 45//61 5//61 19//61
f 20//62 5//62 45//62
f 46//63 20//63 47//63
f 22//64 20//64 46//64
f 48//65 21//65 22//65
f 34//66 3//66 21//66
f 34//67 21//67 48//67
f 49//68 24//68 31//68
f 49//69 23//69 24//69
f 36//70 50//70 38//70
f 23//71 50//71 36//71
f 4//72 23//72 36//72
f 51//73 30//73 27//73
f 51//74 52//74 30//74
f 33//75 30//75 52//75
f 33//76 52//76 53//76
f 33//77 49//77 31//77
f 53//78 49//78 33//78
f 34//79 51//79 26//79
f 26//80 51//80 27//80
f 32//81 29//81 54//81
f 32//82 54//82 55//82
f 28//83 32//83 55//83
f 28//84 55//84 56//84
f 25//85 28//85 56//85
f 25//86 56//86 57//86
f 29//87 25//87 57//87
f 29//88 57//88 54//88
f 9//89 37//89 58//89
f 35//90 9//90 58//90
f 59//91 37//91 38//91
f 59//92 60//92 37//92
f 61//93 58//93 62//93
f 35//94 58//94 61//94
f 39//95 35//95 61//95
f 40//96 39//96 61//96
f 40//97 61//97 63//97
f 45//98 63//98 64//98
f 19//99 40//99 63//99
f 19//100 63//100 45//100
f 65//101 44//101 66//101
f 66//102 44//102 43//102
f 66//103 42//103 67//103
f 43//104 42//104 66//104
f 68//105 41//105 65//105
f 65//106 41//106 44//106
f 42//107 41//107 67//107
f 67//108 41//108 68//108
f 20//109 69//109 47//109
f 20//110 45//110 69//110
f 22//111 46//111 70//111
f 71//112 47//112 69//112
f 71//113 46//113 47//113
f 48//114 51//114 34//114
f 72//115 51//115 48//115
f 48//116 73//116 74//116
f 48//117 22//117 73//117
f 49//118 75//118 50//118
f 23//119 49//119 50//119
f 76//120 77//120 50//120
f 77//121 38//121 50//121
f 72//122 78//122 51//122
f 51//123 78//123 52//123
f 72//124 79//124 78//124
f 52//125 78//125 80//125
f 52//126 80//126 53//126
f 80//127 75//127 49//127
f 80//128 49//128 53//128
f 81//129 75//129 80//129
f 82//130 57//130 83//130
f 83//131 57//131 56//131
f 83//132 55//132 84//132
f 56//133 55//133 83//133
f 85//134 54//134 82//134
f 82//135 54//135 57//135
f 55//136 54//136 84//136
f 84//137 54//137 85//137
f 60//138 86//138 37//138
f 37//139 86//139 58//139
f 59//140 38//140 87//140
f 86//141 60//141 88//141
f 60//142 59//142 88//142
f 86//143 88//143 58//143
f 88//144 62//144 58//144
f 45//145 71//145 69//145
f 45//146 64//146 71//146
f 89//147 67//147 68//147
f 89//148 90//148 67//148
f 65//149 89//149 68//149
f 65//150 91//150 89//150
f 91//151 65//151 66//151
f 91//152 66//152 92//152
f 92//153 66//153 67//153
f 92//154 67//154 90//154
f 70//155 71//155 64//155
f 46//156 71//156 70//156
f 72//157 74//157 93//157
f 72//158 48//158 74//158
f 94//159 73//159 22//159
f 95//160 73//160 94//160
f 73//161 93//161 74//161
f 73//162 95//162 93//162
f 96//163 76//163 75//163
f 75//164 76//164 50//164
f 77//165 97//165 38//165
f 77//166 98//166 97//166
f 76//167 96//167 77//167
f 96//168 98//168 77//168
f 95//169 72//169 93//169
f 79//170 72//170 95//170
f 98//171 75//171 81//171
f 98//172 96//172 75//172
f 99//173 84//173 85//173
f 99//174 100//174 84//174
f 82//175 99//175 85//175
f 82//176 101//176 99//176
f 101//177 82//177 83//177
f 101//178 83//178 102//178
f 102//179 83//179 84//179
f 102//180 84//180 100//180
f 88//181 87//181 62//181
f 88//182 59//182 87//182
f 90//183 89//183 103//183
f 90//184 103//184 104//184
f 89//185 91//185 105//185
f 89//186 105//186 103//186
f 106//187 105//187 91//187
f 106//188 91//188 92//188
f 104//189 92//189 90//189
f 104//190 106//190 92//190
f 79//191 95//191 94//191
f 98//192 81//192 97//192
f 100//193 99//193 107//193
f 100//194 107//194 108//194
f 99//195 101//195 109//195
f 99//196 109//196 107//196
f 110//197 109//197 101//197
f 110//198 101//198 102//198
f 108//199 102//199 100//199
f 108//200 110//200 102//200
f 105//201 106//201 104//201
f 105//202 104//202 103//202
f 109//203 110//203 108//203
f 109//204 108//204 107//204
f 80//205 97//205 81//205
f 36//206 87//206 38//206
f 36//207 38//207 97//207
f 36//208 97//208 80//208
f 61//209 62//209 87//209
f 61//210 87//210 36//210
f 111//211 80//211 78//211
f 111//212 78//212 112//212
f 21//213 113//213 112//213
f 21//214 112//214 78//214
f 114//215 113//215 21//215
f 36//216 111//216 115//216
f 36//217 80//217 111//217
f 116//218 115//218 113//218
f 116//219 36//219 115//219
f 116//220 113//220 114//220
f 63//221 117//221 114//221
f 63//222 114//222 21//222
f 118//223 36//223 116//223
f 118//224 117//224 63//224
f 61//225 36//225 118//225
f 61//226 118//226 63//226
f 118//227 116//227 119//227
f 119//228 116//228 120//228
f 121//229 117//229 118//229
f 121//230 118//230 119//230
f 114//231 121//231 122//231
f 114//232 117//232 121//232
f 114//233 122//233 120//233
f 114//234 120//234 116//234
f 123//235 119//235 120//235
f 123//236 124//236 119//236
f 124//237 121//237 119//237
f 124//238 125//238 121//238
f 126//239 121//239 125//239
f 122//240 121//240 126//240
f 123//241 122//241 126//241
f 120//242 122//242 123//242
f 126//243 124//243 123//243
f 126//244 125//244 124//244
f 115//245 111//245 127//245
f 127//246 111//246 128//246
f 129//247 113//247 115//247
f 129//248 115//248 127//248
f 112//249 129//249 130//249
f 112//250 113//250 129//250
f 112//251 130//251 128//251
f 112//252 128//252 111//252
f 131//253 127//253 128//253
f 131//254 132//254 127//254
f 132//255 129//255 127//255
f 132//256 133//256 129//256
f 134//257 129//257 133//257
f 130//258 129//258 134//258
f 131//259 130//259 134//259
f 128//260 130//260 131//260
f 134//261 132//261 131//261
f 134//262 133//262 132//262
f 94//263 78//263 79//263
f 21//264 78//264 94//264
f 22//265 21//265 94//265
f 70//266 21//266 22//266
f 63//267 21//267 70//267
f 64//268 63//268 70//268
