G04*
G04 #@! TF.GenerationSoftware,Altium Limited,Altium Designer,22.0.2 (36)*
G04*
G04 Layer_Color=65535*
%FSLAX25Y25*%
%MOIN*%
G70*
G04*
G04 #@! TF.SameCoordinates,F8844AE4-5711-4282-AF9D-DA4343363A06*
G04*
G04*
G04 #@! TF.FilePolarity,Positive*
G04*
G01*
G75*
%ADD10C,0.00787*%
%ADD11C,0.01181*%
%ADD12C,0.01200*%
%ADD13C,0.03000*%
%ADD14C,0.01000*%
%ADD15C,0.00394*%
%ADD16C,0.00600*%
%ADD17C,0.01500*%
%ADD18C,0.00500*%
%ADD19R,0.02756X0.07874*%
%ADD20R,0.01968X0.06299*%
D10*
X362339Y243394D02*
G03*
X345016Y243472I-8638J5274D01*
G01*
X309842Y296457D02*
G03*
X309842Y296850I0J197D01*
G01*
D02*
G03*
X309842Y296457I0J-197D01*
G01*
D02*
G03*
X309842Y296850I0J197D01*
G01*
X331890Y296457D02*
G03*
X331890Y296850I0J197D01*
G01*
D02*
G03*
X331890Y296457I0J-197D01*
G01*
D02*
G03*
X331890Y296850I0J197D01*
G01*
X344976Y243433D02*
X347024Y243354D01*
X344976Y243433D02*
X362299Y243354D01*
X347339Y261189D02*
Y267488D01*
Y261189D02*
X359937D01*
Y267488D01*
X347339D02*
X359937D01*
X357224Y328386D02*
X370079D01*
X349213D02*
X362224D01*
X349213Y298386D02*
X370079D01*
Y328386D01*
X349213Y298386D02*
Y328386D01*
X148543Y300984D02*
X158543D01*
X148543D02*
Y340984D01*
X158543Y300984D02*
Y340984D01*
X148543D02*
X158543D01*
X128740Y317323D02*
X138976D01*
X128740D02*
Y336220D01*
X138976D01*
Y317323D02*
Y336220D01*
X123622Y319685D02*
Y334646D01*
X115748D02*
X123622D01*
X115748Y319685D02*
Y334646D01*
Y319685D02*
X123622D01*
X101969Y320472D02*
X109843D01*
X101969D02*
Y334646D01*
X109843D01*
Y320472D02*
Y334646D01*
X151969Y276772D02*
X160236D01*
X151969D02*
Y291732D01*
X160236D01*
Y276772D02*
Y291732D01*
X164567Y301181D02*
X170866D01*
X164567Y288583D02*
Y301181D01*
Y288583D02*
X170866D01*
Y301181D01*
X93307Y318898D02*
X98032D01*
X93307D02*
Y325984D01*
X98032D01*
Y318898D02*
Y325984D01*
X105512Y307874D02*
Y314173D01*
X92913D02*
X105512D01*
X92913Y307874D02*
Y314173D01*
Y307874D02*
X105512D01*
X121653Y305906D02*
X143622D01*
Y298031D02*
Y305906D01*
X121653Y298031D02*
X143622D01*
X121653D02*
Y305906D01*
X108661Y307874D02*
X122835D01*
Y314173D01*
X108661D02*
X122835D01*
X108661Y307874D02*
Y314173D01*
X91732Y277953D02*
X98032Y277953D01*
X91732Y277953D02*
Y289370D01*
X98032D01*
Y277953D02*
Y289370D01*
X301181Y293701D02*
X301181Y287402D01*
X301181Y293701D02*
X312598D01*
Y287402D02*
Y293701D01*
X301181Y287402D02*
X312598D01*
X323228Y293701D02*
X323228Y287402D01*
X323228Y293701D02*
X334646D01*
Y287402D02*
Y293701D01*
X323228Y287402D02*
X334646D01*
X342520Y318110D02*
Y326772D01*
X347244D01*
X342520Y318110D02*
X347244D01*
Y326772D01*
X337008Y292913D02*
X345669D01*
Y288189D02*
Y292913D01*
X337008Y288189D02*
Y292913D01*
Y288189D02*
X345669D01*
X262473Y327800D02*
X268236D01*
X281863Y314173D01*
X265354Y297665D02*
X281863Y314173D01*
X248846D02*
X265354Y297665D01*
X248846Y314173D02*
X262473Y327800D01*
X291203Y312587D02*
X295658Y308133D01*
X282295Y303678D02*
X291203Y312587D01*
X282295Y303678D02*
X286749Y299224D01*
X295658Y308133D01*
X280689Y329030D02*
X285143Y333484D01*
X272616Y337103D02*
X280689Y329030D01*
X272616Y337103D02*
X277070Y341558D01*
X285143Y333484D01*
X238976Y298819D02*
Y307480D01*
X243701D01*
X238976Y298819D02*
X243701D01*
Y307480D01*
X244874Y299423D02*
X250998Y293299D01*
X244874Y299423D02*
X248214Y302764D01*
X250998Y293299D02*
X254339Y296639D01*
X248214Y302764D02*
X254339Y296639D01*
X250576Y327157D02*
X256701Y333282D01*
X247236Y330498D02*
X250576Y327157D01*
X253360Y336622D02*
X256701Y333282D01*
X247236Y330498D02*
X253360Y336622D01*
X274795Y294671D02*
X280920Y300796D01*
X284260Y297455D01*
X274795Y294671D02*
X278136Y291330D01*
X284260Y297455D01*
X265951Y288189D02*
X272075Y282064D01*
X265951Y288189D02*
X269291Y291530D01*
X272075Y282064D02*
X275416Y285405D01*
X269291Y291530D02*
X275416Y285405D01*
X200787Y308268D02*
Y316142D01*
X216535D01*
Y308268D02*
Y316142D01*
X200787Y308268D02*
X216535D01*
X200787Y317323D02*
Y325197D01*
X216535D01*
Y317323D02*
Y325197D01*
X200787Y317323D02*
X216535D01*
X194488Y333465D02*
Y343701D01*
X175591Y333465D02*
X194488D01*
X175591D02*
Y343701D01*
X194488D01*
X257087Y283858D02*
Y292520D01*
X252362Y283858D02*
X257087D01*
X252362Y292520D02*
X257087D01*
X252362Y283858D02*
Y292520D01*
X193701Y295276D02*
Y301575D01*
X181102D02*
X193701D01*
X181102Y295276D02*
Y301575D01*
Y295276D02*
X193701D01*
D11*
X372794Y346457D02*
G03*
X372794Y346457I-15314J0D01*
G01*
X40117D02*
G03*
X40117Y346457I-15314J0D01*
G01*
X34212Y18898D02*
G03*
X34212Y18898I-15314J0D01*
G01*
X378700D02*
G03*
X378700Y18898I-15314J0D01*
G01*
X92126Y320866D02*
G03*
X92126Y320866I-394J0D01*
G01*
X259508Y336166D02*
G03*
X259508Y336166I-557J0D01*
G01*
X322393Y242520D02*
G03*
X322393Y254331I0J5906D01*
G01*
X158614D02*
G03*
X158614Y242520I0J-5906D01*
G01*
X20031Y254331D02*
G03*
X20031Y242520I0J-5906D01*
G01*
X62944D02*
G03*
X62944Y254331I0J5906D01*
G01*
X0Y16929D02*
G03*
X16929Y0I16929J0D01*
G01*
X365354D02*
G03*
X382283Y16929I0J16929D01*
G01*
Y354331D02*
G03*
X365354Y371260I-16929J0D01*
G01*
X16929D02*
G03*
X0Y354331I0J-16929D01*
G01*
X158614Y254331D02*
X321999D01*
X158614Y242520D02*
X321999D01*
X20031D02*
X62944D01*
X20031Y254331D02*
X62944D01*
X0Y16929D02*
Y354331D01*
X16929Y0D02*
X365354D01*
X382283Y16929D02*
Y354331D01*
X16929Y371260D02*
X365354D01*
D12*
X56496Y354732D02*
G03*
X52362Y350598I0J-4134D01*
G01*
X87795D02*
G03*
X83661Y354732I-4134J-0D01*
G01*
X52379Y296487D02*
X60279D01*
X79879D02*
X87779D01*
X52379Y322087D02*
Y342687D01*
Y296487D02*
Y302787D01*
X56479Y354687D02*
X83679D01*
X52379Y342687D02*
X54379D01*
X58079D01*
X58479D02*
X87779D01*
X52379D02*
Y350587D01*
X87779Y296487D02*
Y342687D01*
Y350587D01*
D13*
X167823Y332677D02*
G03*
X167823Y332677I-500J0D01*
G01*
X107325Y299606D02*
G03*
X107325Y299606I-1419J0D01*
G01*
D14*
X36802Y319596D02*
X41128D01*
X11128D02*
X15148D01*
X11128Y294596D02*
Y319596D01*
X41128Y294596D02*
Y319596D01*
X36128Y289586D02*
X41128Y294586D01*
X16128Y289586D02*
Y289596D01*
X11128Y294596D02*
X16128Y289596D01*
X54379Y301987D02*
Y303287D01*
Y321687D02*
Y342687D01*
Y301987D02*
X58279D01*
X81879D02*
X85779D01*
X52379Y350587D02*
X87779D01*
X85779Y301987D02*
Y342687D01*
X100394Y266142D02*
Y295276D01*
X148425Y266142D02*
Y295276D01*
X100394Y266142D02*
X148425D01*
X100394Y295276D02*
X148425D01*
X100394Y266142D02*
Y295276D01*
X148425Y266142D02*
Y295276D01*
X100394Y266142D02*
X148425D01*
X100394Y295276D02*
X148425D01*
X237846Y297181D02*
Y336181D01*
X218347Y297181D02*
X237846D01*
X218347D02*
Y336181D01*
X237846D01*
X90762Y291381D02*
Y295380D01*
X92762D01*
X93428Y294714D01*
Y293381D01*
X92762Y292714D01*
X90762D01*
X92095D02*
X93428Y291381D01*
X97427D02*
X94761D01*
X97427Y294047D01*
Y294714D01*
X96760Y295380D01*
X95427D01*
X94761Y294714D01*
X352971Y272672D02*
X352305Y273338D01*
X350972D01*
X350306Y272672D01*
Y270006D01*
X350972Y269339D01*
X352305D01*
X352971Y270006D01*
X356970Y273338D02*
X354304D01*
Y271339D01*
X355637Y272005D01*
X356304D01*
X356970Y271339D01*
Y270006D01*
X356304Y269339D01*
X354971D01*
X354304Y270006D01*
X351906Y296487D02*
X353239D01*
X352572D01*
Y292489D01*
X351906D01*
X353239D01*
X357904Y295821D02*
X357237Y296487D01*
X355904D01*
X355238Y295821D01*
Y293155D01*
X355904Y292489D01*
X357237D01*
X357904Y293155D01*
X361902Y295821D02*
X361236Y296487D01*
X359903D01*
X359237Y295821D01*
Y295155D01*
X359903Y294488D01*
X361236D01*
X361902Y293822D01*
Y293155D01*
X361236Y292489D01*
X359903D01*
X359237Y293155D01*
X363235Y292489D02*
Y296487D01*
X365235D01*
X365901Y295821D01*
Y294488D01*
X365235Y293822D01*
X363235D01*
X367234Y292489D02*
X368567D01*
X367900D01*
Y296487D01*
X367234Y295821D01*
X34031Y327184D02*
X33365Y327850D01*
X32032D01*
X31365Y327184D01*
Y324518D01*
X32032Y323851D01*
X33365D01*
X34031Y324518D01*
X35364Y323851D02*
X36697D01*
X36031D01*
Y327850D01*
X35364Y327184D01*
X41362Y327850D02*
X40029Y327184D01*
X38696Y325851D01*
Y324518D01*
X39363Y323851D01*
X40696D01*
X41362Y324518D01*
Y325184D01*
X40696Y325851D01*
X38696D01*
X51904Y291763D02*
Y287764D01*
X53904D01*
X54570Y288431D01*
Y291097D01*
X53904Y291763D01*
X51904D01*
X58569Y291097D02*
X57902Y291763D01*
X56569D01*
X55903Y291097D01*
Y288431D01*
X56569Y287764D01*
X57902D01*
X58569Y288431D01*
X62568Y291763D02*
X61235D01*
X61901D01*
Y288431D01*
X61235Y287764D01*
X60568D01*
X59902Y288431D01*
X64567Y290430D02*
X65900D01*
X66566Y289764D01*
Y287764D01*
X64567D01*
X63901Y288431D01*
X64567Y289097D01*
X66566D01*
X70565Y290430D02*
X68566D01*
X67899Y289764D01*
Y288431D01*
X68566Y287764D01*
X70565D01*
X71898D02*
Y291763D01*
Y289097D02*
X73897Y290430D01*
X71898Y289097D02*
X73897Y287764D01*
X75897D02*
X77229D01*
X76563D01*
Y291763D01*
X75897Y291097D01*
X310236Y339128D02*
X309570Y339795D01*
X308237D01*
X307570Y339128D01*
Y338462D01*
X308237Y337795D01*
X309570D01*
X310236Y337129D01*
Y336462D01*
X309570Y335796D01*
X308237D01*
X307570Y336462D01*
X311569Y335796D02*
X312902D01*
X312236D01*
Y339795D01*
X311569Y339128D01*
X331617D02*
X330951Y339795D01*
X329618D01*
X328951Y339128D01*
Y338462D01*
X329618Y337795D01*
X330951D01*
X331617Y337129D01*
Y336462D01*
X330951Y335796D01*
X329618D01*
X328951Y336462D01*
X335616Y335796D02*
X332950D01*
X335616Y338462D01*
Y339128D01*
X334949Y339795D01*
X333616D01*
X332950Y339128D01*
X364305Y258338D02*
Y255006D01*
X364972Y254339D01*
X366305D01*
X366971Y255006D01*
Y258338D01*
X370970Y254339D02*
X368304D01*
X370970Y257005D01*
Y257671D01*
X370304Y258338D01*
X368971D01*
X368304Y257671D01*
X146879Y346881D02*
X145546D01*
X144879Y346215D01*
Y343549D01*
X145546Y342882D01*
X146879D01*
X147545Y343549D01*
Y346215D01*
X146879Y346881D01*
X148878D02*
Y342882D01*
X151544D01*
X155543Y346881D02*
X152877D01*
Y342882D01*
X155543D01*
X152877Y344882D02*
X154210D01*
X156876Y346881D02*
Y342882D01*
X158875D01*
X159541Y343549D01*
Y346215D01*
X158875Y346881D01*
X156876D01*
X160874Y342882D02*
X162207D01*
X161541D01*
Y346881D01*
X160874Y346215D01*
X132798Y341490D02*
X132132Y342157D01*
X130799D01*
X130132Y341490D01*
Y338825D01*
X130799Y338158D01*
X132132D01*
X132798Y338825D01*
X134131Y341490D02*
X134798Y342157D01*
X136130D01*
X136797Y341490D01*
Y340824D01*
X136130Y340158D01*
X136797Y339491D01*
Y338825D01*
X136130Y338158D01*
X134798D01*
X134131Y338825D01*
Y339491D01*
X134798Y340158D01*
X134131Y340824D01*
Y341490D01*
X134798Y340158D02*
X136130D01*
X116353Y336583D02*
Y340582D01*
X118352D01*
X119019Y339916D01*
Y338583D01*
X118352Y337916D01*
X116353D01*
X117686D02*
X119019Y336583D01*
X123017Y340582D02*
X120352D01*
Y338583D01*
X121684Y339249D01*
X122351D01*
X123017Y338583D01*
Y337250D01*
X122351Y336583D01*
X121018D01*
X120352Y337250D01*
X102573Y336583D02*
Y340582D01*
X104573D01*
X105239Y339916D01*
Y338583D01*
X104573Y337916D01*
X102573D01*
X103906D02*
X105239Y336583D01*
X109238Y340582D02*
X107905Y339916D01*
X106572Y338583D01*
Y337250D01*
X107238Y336583D01*
X108571D01*
X109238Y337250D01*
Y337916D01*
X108571Y338583D01*
X106572D01*
X194306Y331133D02*
Y327801D01*
X194972Y327134D01*
X196305D01*
X196971Y327801D01*
Y331133D01*
X198304Y330467D02*
X198971Y331133D01*
X200304D01*
X200970Y330467D01*
Y329800D01*
X200304Y329134D01*
X199637D01*
X200304D01*
X200970Y328467D01*
Y327801D01*
X200304Y327134D01*
X198971D01*
X198304Y327801D01*
X154360Y273774D02*
X153694Y274440D01*
X152361D01*
X151695Y273774D01*
Y271108D01*
X152361Y270442D01*
X153694D01*
X154360Y271108D01*
X155693Y270442D02*
X157026D01*
X156360D01*
Y274440D01*
X155693Y273774D01*
X159026D02*
X159692Y274440D01*
X161025D01*
X161691Y273774D01*
Y271108D01*
X161025Y270442D01*
X159692D01*
X159026Y271108D01*
Y273774D01*
X167050Y285585D02*
X166384Y286251D01*
X165051D01*
X164384Y285585D01*
Y282919D01*
X165051Y282253D01*
X166384D01*
X167050Y282919D01*
X168383D02*
X169049Y282253D01*
X170382D01*
X171049Y282919D01*
Y285585D01*
X170382Y286251D01*
X169049D01*
X168383Y285585D01*
Y284918D01*
X169049Y284252D01*
X171049D01*
X97275Y334435D02*
X93276D01*
Y332435D01*
X93943Y331769D01*
X96609D01*
X97275Y332435D01*
Y334435D01*
X96609Y330436D02*
X97275Y329769D01*
Y328436D01*
X96609Y327770D01*
X95942D01*
X95276Y328436D01*
Y329103D01*
Y328436D01*
X94609Y327770D01*
X93943D01*
X93276Y328436D01*
Y329769D01*
X93943Y330436D01*
X95305Y304876D02*
X94639Y305543D01*
X93306D01*
X92639Y304876D01*
Y302210D01*
X93306Y301544D01*
X94639D01*
X95305Y302210D01*
X96638Y301544D02*
X97971D01*
X97305D01*
Y305543D01*
X96638Y304876D01*
X99970Y305543D02*
X102636D01*
Y304876D01*
X99970Y302210D01*
Y301544D01*
X125559Y260478D02*
Y263144D01*
X124892Y263810D01*
X123560D01*
X122893Y263144D01*
Y260478D01*
X123560Y259812D01*
X124892D01*
X124226Y261144D02*
X125559Y259812D01*
X124892D02*
X125559Y260478D01*
X126892Y259812D02*
X128225D01*
X127558D01*
Y263810D01*
X126892Y263144D01*
X130799Y311842D02*
Y307843D01*
X132798D01*
X133465Y308510D01*
Y311175D01*
X132798Y311842D01*
X130799D01*
X134798Y307843D02*
X136130D01*
X135464D01*
Y311842D01*
X134798Y311175D01*
X112022Y305936D02*
Y301938D01*
X114021D01*
X114688Y302604D01*
Y305270D01*
X114021Y305936D01*
X112022D01*
X118687Y301938D02*
X116021D01*
X118687Y304603D01*
Y305270D01*
X118020Y305936D01*
X116687D01*
X116021Y305270D01*
X303754Y281071D02*
Y285070D01*
X305754D01*
X306420Y284404D01*
Y283071D01*
X305754Y282404D01*
X303754D01*
X305087D02*
X306420Y281071D01*
X307753Y284404D02*
X308419Y285070D01*
X309752D01*
X310419Y284404D01*
Y283737D01*
X309752Y283071D01*
X309086D01*
X309752D01*
X310419Y282404D01*
Y281738D01*
X309752Y281071D01*
X308419D01*
X307753Y281738D01*
X326589Y281071D02*
Y285070D01*
X328588D01*
X329255Y284404D01*
Y283071D01*
X328588Y282404D01*
X326589D01*
X327922D02*
X329255Y281071D01*
X332587D02*
Y285070D01*
X330588Y283071D01*
X333254D01*
X340793Y331496D02*
X340127Y330830D01*
Y329497D01*
X340793Y328830D01*
X343459D01*
X344125Y329497D01*
Y330830D01*
X343459Y331496D01*
X344125Y332829D02*
Y334162D01*
Y333495D01*
X340127D01*
X340793Y332829D01*
X338219Y284404D02*
X337552Y285070D01*
X336219D01*
X335553Y284404D01*
Y281738D01*
X336219Y281071D01*
X337552D01*
X338219Y281738D01*
X339551Y281071D02*
X340884D01*
X340218D01*
Y285070D01*
X339551Y284404D01*
X345550Y285070D02*
X342884D01*
Y283071D01*
X344217Y283737D01*
X344883D01*
X345550Y283071D01*
Y281738D01*
X344883Y281071D01*
X343550D01*
X342884Y281738D01*
X263476Y344519D02*
Y341187D01*
X264142Y340520D01*
X265475D01*
X266142Y341187D01*
Y344519D01*
X267475Y340520D02*
X268808D01*
X268141D01*
Y344519D01*
X267475Y343853D01*
X292681Y301259D02*
X291738D01*
X290796Y300316D01*
Y299374D01*
X292681Y297489D01*
X293623D01*
X294566Y298431D01*
Y299374D01*
X297393Y301259D02*
X294566Y304086D01*
X294566Y301259D01*
X296451Y303144D01*
X282767Y338552D02*
Y342550D01*
X284767D01*
X285433Y341884D01*
Y340551D01*
X284767Y339885D01*
X282767D01*
X284100D02*
X285433Y338552D01*
X286766D02*
X288099D01*
X287432D01*
Y342550D01*
X286766Y341884D01*
X240006Y290066D02*
X239339Y289400D01*
Y288067D01*
X240006Y287400D01*
X242671D01*
X243338Y288067D01*
Y289400D01*
X242671Y290066D01*
X243338Y291399D02*
Y292732D01*
Y292066D01*
X239339D01*
X240006Y291399D01*
X243338Y294731D02*
Y296064D01*
Y295398D01*
X239339D01*
X240006Y294731D01*
X246699Y284282D02*
X246032Y283615D01*
Y282282D01*
X246699Y281616D01*
X249364D01*
X250031Y282282D01*
Y283615D01*
X249364Y284282D01*
X250031Y285614D02*
Y286947D01*
Y286281D01*
X246032D01*
X246699Y285614D01*
X250031Y291613D02*
Y288947D01*
X247365Y291613D01*
X246699D01*
X246032Y290946D01*
Y289613D01*
X246699Y288947D01*
X246224Y336692D02*
X245282D01*
X244339Y335749D01*
Y334807D01*
X246224Y332922D01*
X247166D01*
X248109Y333864D01*
Y334807D01*
X251408Y337163D02*
X249523Y335278D01*
Y339048D01*
X249051Y339519D01*
X248109D01*
X247166Y338577D01*
Y337634D01*
X219302Y342005D02*
X221968Y338006D01*
Y342005D02*
X219302Y338006D01*
X223301Y342005D02*
X225967D01*
X224634D01*
Y338006D01*
X227300D02*
Y340672D01*
X228633Y342005D01*
X229965Y340672D01*
Y338006D01*
Y340005D01*
X227300D01*
X231298Y342005D02*
Y338006D01*
X233964D01*
X235297D02*
X236630D01*
X235964D01*
Y342005D01*
X235297Y341338D01*
X283232Y291810D02*
X282289D01*
X281347Y290867D01*
Y289925D01*
X283232Y288040D01*
X284174D01*
X285117Y288982D01*
Y289925D01*
X284174Y292752D02*
Y293695D01*
X285117Y294637D01*
X286059D01*
X286531Y294166D01*
Y293224D01*
X286059Y292752D01*
X286531Y293224D01*
X287473D01*
X287944Y292752D01*
Y291810D01*
X287002Y290867D01*
X286059D01*
X267403Y282907D02*
Y283849D01*
X266461Y284792D01*
X265518D01*
X263633Y282907D01*
Y281964D01*
X264576Y281022D01*
X265518D01*
X265990Y279608D02*
X266932Y278665D01*
X266461Y279137D01*
X269288Y281964D01*
X268346D01*
X269760Y275838D02*
X272587Y278665D01*
X269760D01*
X271645Y276781D01*
X205541Y305270D02*
X204875Y305936D01*
X203542D01*
X202876Y305270D01*
Y302604D01*
X203542Y301938D01*
X204875D01*
X205541Y302604D01*
X206874Y301938D02*
X208207D01*
X207541D01*
Y305936D01*
X206874Y305270D01*
X210207Y302604D02*
X210873Y301938D01*
X212206D01*
X212872Y302604D01*
Y305270D01*
X212206Y305936D01*
X210873D01*
X210207Y305270D01*
Y304604D01*
X210873Y303937D01*
X212872D01*
X205935Y330467D02*
X205269Y331133D01*
X203936D01*
X203269Y330467D01*
Y327801D01*
X203936Y327134D01*
X205269D01*
X205935Y327801D01*
X207268Y327134D02*
X208601D01*
X207934D01*
Y331133D01*
X207268Y330467D01*
X210600D02*
X211267Y331133D01*
X212600D01*
X213266Y330467D01*
Y329800D01*
X212600Y329134D01*
X213266Y328467D01*
Y327801D01*
X212600Y327134D01*
X211267D01*
X210600Y327801D01*
Y328467D01*
X211267Y329134D01*
X210600Y329800D01*
Y330467D01*
X211267Y329134D02*
X212600D01*
X198940Y340309D02*
X198273Y340976D01*
X196941D01*
X196274Y340309D01*
Y337644D01*
X196941Y336977D01*
X198273D01*
X198940Y337644D01*
X202939Y340976D02*
X201606Y340309D01*
X200273Y338976D01*
Y337644D01*
X200939Y336977D01*
X202272D01*
X202939Y337644D01*
Y338310D01*
X202272Y338976D01*
X200273D01*
X253392Y274045D02*
X252725Y273379D01*
Y272046D01*
X253392Y271380D01*
X256057D01*
X256724Y272046D01*
Y273379D01*
X256057Y274045D01*
X256724Y275378D02*
Y276711D01*
Y276045D01*
X252725D01*
X253392Y275378D01*
Y278711D02*
X252725Y279377D01*
Y280710D01*
X253392Y281376D01*
X254058D01*
X254724Y280710D01*
Y280043D01*
Y280710D01*
X255391Y281376D01*
X256057D01*
X256724Y280710D01*
Y279377D01*
X256057Y278711D01*
X190361Y292624D02*
X189695Y293290D01*
X188362D01*
X187695Y292624D01*
Y289958D01*
X188362Y289292D01*
X189695D01*
X190361Y289958D01*
X191694Y293290D02*
X194360D01*
Y292624D01*
X191694Y289958D01*
Y289292D01*
D15*
X315748Y303150D02*
X316732D01*
X315748D02*
X316732D01*
Y326772D01*
Y303150D02*
Y326772D01*
X315748D02*
X316732D01*
X315748D02*
X316732D01*
X302953D02*
X303937D01*
X302953D02*
X303937D01*
X302953Y303150D02*
Y326772D01*
Y303150D02*
Y326772D01*
Y303150D02*
X303937D01*
X302953D02*
X303937D01*
X337795D02*
X338779D01*
X337795D02*
X338779D01*
Y326772D01*
Y303150D02*
Y326772D01*
X337795D02*
X338779D01*
X337795D02*
X338779D01*
X325000D02*
X325984D01*
X325000D02*
X325984D01*
X325000Y303150D02*
Y326772D01*
Y303150D02*
Y326772D01*
Y303150D02*
X325984D01*
X325000D02*
X325984D01*
D16*
X173341Y330812D02*
X184927D01*
X173341Y304621D02*
Y330812D01*
Y304621D02*
X184927D01*
Y330812D01*
D17*
X40516Y25099D02*
Y19101D01*
X43515D01*
X44514Y20100D01*
Y24099D01*
X43515Y25099D01*
X40516D01*
X49513Y19101D02*
X47513D01*
X46514Y20100D01*
Y22100D01*
X47513Y23099D01*
X49513D01*
X50512Y22100D01*
Y21100D01*
X46514D01*
X52512Y19101D02*
X55511D01*
X56511Y20100D01*
X55511Y21100D01*
X53512D01*
X52512Y22100D01*
X53512Y23099D01*
X56511D01*
X58510Y19101D02*
X60509D01*
X59510D01*
Y23099D01*
X58510D01*
X65508Y17101D02*
X66507D01*
X67507Y18101D01*
Y23099D01*
X64508D01*
X63508Y22100D01*
Y20100D01*
X64508Y19101D01*
X67507D01*
X69506D02*
Y23099D01*
X72505D01*
X73505Y22100D01*
Y19101D01*
X78503D02*
X76504D01*
X75504Y20100D01*
Y22100D01*
X76504Y23099D01*
X78503D01*
X79503Y22100D01*
Y21100D01*
X75504D01*
X85501Y25099D02*
Y19101D01*
X82502D01*
X81502Y20100D01*
Y22100D01*
X82502Y23099D01*
X85501D01*
X93499Y25099D02*
Y19101D01*
X96498D01*
X97497Y20100D01*
Y21100D01*
X96498Y22100D01*
X93499D01*
X96498D01*
X97497Y23099D01*
Y24099D01*
X96498Y25099D01*
X93499D01*
X99497Y23099D02*
Y20100D01*
X100496Y19101D01*
X103495D01*
Y18101D01*
X102496Y17101D01*
X101496D01*
X103495Y19101D02*
Y23099D01*
X111493Y19101D02*
Y25099D01*
X114492D01*
X115491Y24099D01*
Y22100D01*
X114492Y21100D01*
X111493D01*
X118491Y19101D02*
X120490D01*
X121490Y20100D01*
Y22100D01*
X120490Y23099D01*
X118491D01*
X117491Y22100D01*
Y20100D01*
X118491Y19101D01*
X123489D02*
X125488D01*
X124488D01*
Y25099D01*
X123489D01*
X129487Y23099D02*
X131486D01*
X132486Y22100D01*
Y19101D01*
X129487D01*
X128487Y20100D01*
X129487Y21100D01*
X132486D01*
X134485Y23099D02*
Y19101D01*
Y21100D01*
X135485Y22100D01*
X136485Y23099D01*
X137484D01*
X107404Y12766D02*
X106071D01*
X105404Y12099D01*
Y9433D01*
X106071Y8767D01*
X107404D01*
X108070Y9433D01*
Y12099D01*
X107404Y12766D01*
X109403Y11433D02*
Y8767D01*
Y10100D01*
X110070Y10767D01*
X110736Y11433D01*
X111403D01*
X113402Y8767D02*
X114735D01*
X114068D01*
Y11433D01*
X113402D01*
X118067Y7434D02*
X118734D01*
X119400Y8101D01*
Y11433D01*
X117401D01*
X116734Y10767D01*
Y9433D01*
X117401Y8767D01*
X119400D01*
X120733D02*
X122066D01*
X121399D01*
Y11433D01*
X120733D01*
X124065Y8767D02*
Y11433D01*
X126065D01*
X126731Y10767D01*
Y8767D01*
X128730Y11433D02*
X130063D01*
X130730Y10767D01*
Y8767D01*
X128730D01*
X128064Y9433D01*
X128730Y10100D01*
X130730D01*
X132063Y8767D02*
X133396D01*
X132729D01*
Y12766D01*
X132063D01*
X135395Y11433D02*
X136061D01*
Y10767D01*
X135395D01*
Y11433D01*
Y9433D02*
X136061D01*
Y8767D01*
X135395D01*
Y9433D01*
X142726Y12766D02*
Y8767D01*
Y10767D01*
X143392Y11433D01*
X144725D01*
X145392Y10767D01*
Y8767D01*
X147391Y12099D02*
Y11433D01*
X146724D01*
X148057D01*
X147391D01*
Y9433D01*
X148057Y8767D01*
X150723Y12099D02*
Y11433D01*
X150057D01*
X151390D01*
X150723D01*
Y9433D01*
X151390Y8767D01*
X153389Y7434D02*
Y11433D01*
X155388D01*
X156055Y10767D01*
Y9433D01*
X155388Y8767D01*
X153389D01*
X157388D02*
X159387D01*
X160054Y9433D01*
X159387Y10100D01*
X158054D01*
X157388Y10767D01*
X158054Y11433D01*
X160054D01*
X161386D02*
X162053D01*
Y10767D01*
X161386D01*
Y11433D01*
Y9433D02*
X162053D01*
Y8767D01*
X161386D01*
Y9433D01*
X164719Y8767D02*
X167385Y11433D01*
X168717Y8767D02*
X171383Y11433D01*
X174049Y7434D02*
X174715D01*
X175382Y8101D01*
Y11433D01*
X173383D01*
X172716Y10767D01*
Y9433D01*
X173383Y8767D01*
X175382D01*
X176715D02*
X178048D01*
X177381D01*
Y11433D01*
X176715D01*
X180714Y12099D02*
Y11433D01*
X180047D01*
X181380D01*
X180714D01*
Y9433D01*
X181380Y8767D01*
X183379Y12766D02*
Y8767D01*
Y10767D01*
X184046Y11433D01*
X185379D01*
X186045Y10767D01*
Y8767D01*
X187378Y11433D02*
Y9433D01*
X188045Y8767D01*
X190044D01*
Y11433D01*
X191377Y12766D02*
Y8767D01*
X193376D01*
X194043Y9433D01*
Y10100D01*
Y10767D01*
X193376Y11433D01*
X191377D01*
X195376Y8767D02*
Y9433D01*
X196042D01*
Y8767D01*
X195376D01*
X201374Y11433D02*
X199374D01*
X198708Y10767D01*
Y9433D01*
X199374Y8767D01*
X201374D01*
X203373D02*
X204706D01*
X205372Y9433D01*
Y10767D01*
X204706Y11433D01*
X203373D01*
X202707Y10767D01*
Y9433D01*
X203373Y8767D01*
X206705D02*
Y11433D01*
X207372D01*
X208038Y10767D01*
Y8767D01*
Y10767D01*
X208704Y11433D01*
X209371Y10767D01*
Y8767D01*
X210704D02*
X213370Y11433D01*
X214703Y8767D02*
Y11433D01*
X216036Y12766D01*
X217368Y11433D01*
Y8767D01*
Y10767D01*
X214703D01*
X219368Y8767D02*
Y12099D01*
Y10767D01*
X218701D01*
X220034D01*
X219368D01*
Y12099D01*
X220034Y12766D01*
X222700Y12099D02*
Y11433D01*
X222034D01*
X223366D01*
X222700D01*
Y9433D01*
X223366Y8767D01*
X227365D02*
X226032D01*
X225366Y9433D01*
Y10767D01*
X226032Y11433D01*
X227365D01*
X228032Y10767D01*
Y10100D01*
X225366D01*
X229364Y11433D02*
Y8767D01*
Y10100D01*
X230031Y10767D01*
X230697Y11433D01*
X231364D01*
X236029Y12766D02*
X233363D01*
Y8767D01*
X236029D01*
X233363Y10767D02*
X234696D01*
X238028Y11433D02*
X239361D01*
X240028Y10767D01*
Y8767D01*
X238028D01*
X237362Y9433D01*
X238028Y10100D01*
X240028D01*
X241361Y11433D02*
Y8767D01*
Y10100D01*
X242027Y10767D01*
X242694Y11433D01*
X243360D01*
X246026Y12099D02*
Y11433D01*
X245359D01*
X246692D01*
X246026D01*
Y9433D01*
X246692Y8767D01*
X248692Y12766D02*
Y8767D01*
Y10767D01*
X249358Y11433D01*
X250691D01*
X251357Y10767D01*
Y8767D01*
X252690Y12766D02*
Y8767D01*
X255356D01*
X256689Y12766D02*
X259355D01*
X258022D01*
Y8767D01*
X260688Y12766D02*
Y8767D01*
X262687D01*
X263354Y9433D01*
Y12099D01*
X262687Y12766D01*
X260688D01*
X264686Y8767D02*
X267352Y11433D01*
X271351Y12099D02*
X270685Y12766D01*
X269352D01*
X268685Y12099D01*
Y11433D01*
X269352Y10767D01*
X270685D01*
X271351Y10100D01*
Y9433D01*
X270685Y8767D01*
X269352D01*
X268685Y9433D01*
X273350Y8767D02*
X274683D01*
X275350Y9433D01*
Y10767D01*
X274683Y11433D01*
X273350D01*
X272684Y10767D01*
Y9433D01*
X273350Y8767D01*
X276683D02*
X278015D01*
X277349D01*
Y12766D01*
X276683D01*
X282681D02*
Y8767D01*
X280681D01*
X280015Y9433D01*
Y10767D01*
X280681Y11433D01*
X282681D01*
X286013Y8767D02*
X284680D01*
X284014Y9433D01*
Y10767D01*
X284680Y11433D01*
X286013D01*
X286679Y10767D01*
Y10100D01*
X284014D01*
X288012Y11433D02*
Y8767D01*
Y10100D01*
X288679Y10767D01*
X289345Y11433D01*
X290012D01*
X292011Y10767D02*
X294677D01*
X296010Y8767D02*
Y12766D01*
X298009D01*
X298675Y12099D01*
Y10767D01*
X298009Y10100D01*
X296010D01*
X297343D02*
X298675Y8767D01*
X302008D02*
X300675D01*
X300008Y9433D01*
Y10767D01*
X300675Y11433D01*
X302008D01*
X302674Y10767D01*
Y10100D01*
X300008D01*
X304674Y8767D02*
Y12099D01*
Y10767D01*
X304007D01*
X305340D01*
X304674D01*
Y12099D01*
X305340Y12766D01*
X307339Y8767D02*
X308672D01*
X308006D01*
Y12766D01*
X307339D01*
X311338Y8767D02*
X312671D01*
X313337Y9433D01*
Y10767D01*
X312671Y11433D01*
X311338D01*
X310672Y10767D01*
Y9433D01*
X311338Y8767D01*
X314670Y11433D02*
Y9433D01*
X315337Y8767D01*
X316003Y9433D01*
X316670Y8767D01*
X317336Y9433D01*
Y11433D01*
X318669Y10767D02*
X321335D01*
X322668Y8767D02*
Y12766D01*
X324667D01*
X325334Y12099D01*
Y10767D01*
X324667Y10100D01*
X322668D01*
X326666Y8767D02*
X327999D01*
X327333D01*
Y12766D01*
X326666D01*
X330665Y11433D02*
X331998D01*
X332664Y10767D01*
Y8767D01*
X330665D01*
X329999Y9433D01*
X330665Y10100D01*
X332664D01*
X334664Y12099D02*
Y11433D01*
X333997D01*
X335330D01*
X334664D01*
Y9433D01*
X335330Y8767D01*
X339329D02*
X337996D01*
X337330Y9433D01*
Y10767D01*
X337996Y11433D01*
X339329D01*
X339996Y10767D01*
Y10100D01*
X337330D01*
D18*
X18228Y283087D02*
Y285086D01*
X17228Y284086D02*
X19227D01*
D19*
X123031Y301970D02*
D03*
D20*
X121850Y311024D02*
D03*
M02*
